<?xml version="1.0" encoding="UTF-8"?>
<svg id="Calque_2" data-name="Calque 2" xmlns="http://www.w3.org/2000/svg" xmlns:xlink="http://www.w3.org/1999/xlink" viewBox="0 0 2146 2146">
  <defs>
    <style>
      .cls-1 {
        fill: none;
      }

      .cls-2 {
        fill: #bfa880;
      }

      .cls-3 {
        fill: url(#New_Pattern_Swatch_7);
      }
    </style>
    <pattern id="New_Pattern_Swatch_7" data-name="New Pattern Swatch 7" x="0" y="0" width="534" height="534" patternTransform="translate(2174 7631)" patternUnits="userSpaceOnUse" viewBox="0 0 534 534">
      <g>
        <rect class="cls-1" width="534" height="534"/>
        <g>
          <polygon class="cls-2" points="534 29.25 534 29.24 533.88 29.23 534 29.25"/>
          <path class="cls-2" d="M362.48,0h-13.64c-1.53,5.63-4.32,9.99-6.78,12.58,7.15-3.66,13.99-7.87,20.42-12.58Z"/>
          <path class="cls-2" d="M3.76,470.47c-1.27-.73-2.52-1.49-3.76-2.25v2.26c1.33-.07,2.59-.06,3.76,0Z"/>
          <path class="cls-2" d="M179.66,0h-.7c.28.49.56.99.84,1.48-.05-.49-.1-.98-.14-1.48Z"/>
          <path class="cls-2" d="M156.53,534h11.64c-1.2-2.38-2.33-4.79-3.37-7.24-1.9,1.73-4.83,4.35-8.27,7.24Z"/>
          <path class="cls-2" d="M207.05,253.71c4.77,16.74,2.35,37.76-24.92,56.43-2.57,1.76-5.8-1.02-4.43-3.82.88-1.8,2.56-4.67,4.48-8.56-5.48,5.87-10.89,10.1-16.3,13.14-3.69,4.72-8.12,8.96-13.42,12.14.01.53.03,1.06.03,1.6,78.05-13.65,85.95-76.31,85.95-76.31-11.96,1.1-22.36,2.96-31.39,5.38Z"/>
          <path class="cls-2" d="M142.96,327.2c-.04,2.68-.2,5.45-.53,8.28-1.15,10.08-4.12,19.49-8.85,28.09-3.33-10.68-16.77-29.53-69.48-35.04-71.35-7.46,16.78,49.04,63.8,43.84-9.85,13.2-24.54,24.16-43.69,32.58-2.41,1.06-3.5,3.87-2.44,6.27.78,1.78,2.53,2.85,4.36,2.85.64,0,1.29-.13,1.91-.4,21.11-9.28,37.31-21.56,48.17-36.52,8.78-12.09,14.06-25.88,15.72-41,.44-3.98.6-7.83.56-11.5,0-.54-.02-1.07-.03-1.6-2.9,1.74-6.06,3.16-9.5,4.15Z"/>
          <path class="cls-2" d="M118.09,204.45c-32.94,3.76-22.58,36.7-10.35,41.4,12.23,4.7-2.82-45.17,41.4-11.29,0,0,1.88-33.88-31.05-30.11Z"/>
          <path class="cls-2" d="M134.09,228.51c-25.41,8.47-16,23.53-16,23.53,40.46,6.59,16-23.53,16-23.53Z"/>
          <path class="cls-2" d="M107.32,257.03c36.48,31.9,49.37-3.76,53.38-21.97.33-1.49-1.72-2.25-2.45-.91-16.21,29.93-37.17,26.47-49.52,20.68-1.39-.65-2.57,1.19-1.42,2.2Z"/>
          <path class="cls-2" d="M140.04,199.83c48.34,21.25,11.22,78.76.36,93.78-1.26,1.74.27,4.14,2.37,3.72,16.35-3.24,42.33-13.51,44.01-55.61,1.37-34.24-30.87-47.44-45.97-46.45-2.5.16-3.07,3.55-.78,4.55Z"/>
          <path class="cls-2" d="M140.67,271.37c-33.3,6.45-56.93-19.34-56.93-19.34,4.3,76.27,90.23,12.89,56.93,19.34Z"/>
          <path class="cls-2" d="M122.79,191.81c13.15-7.69-34.06-.24-49.87,27.29-5.91,10.29-3.58,25.56,2.82,40.83.77,1.83,3.46,1.36,3.55-.62.69-14.98,6.86-46.07,43.5-67.5Z"/>
          <path class="cls-2" d="M192.64,218.65c2.33,3.13,3.55,5.15,3.55,5.15,0,0,6.59-16.94-11.29-43.29-12.55-18.49-39.92-8.71-55.14-1.23-6.47,3.18-10.74,5.94-10.74,5.94,37.59-9.02,64.36,20.99,73.61,33.43Z"/>
          <path class="cls-2" d="M119.7,178.79c.71-.07,1.42-.12,2.15-.16,0,0-57.4-18.82-60.23,39.52-.15,3.15-.28,5.84-.37,8.14-1.58,39.68,6.94-42.69,58.44-47.5Z"/>
          <path class="cls-2" d="M129.38,302.85c3.13-1.11,4.12-6.57.94-7.53-18.78-5.68-53.54,12.56-72.94-55.93-.81-2.85-1.59-5.85-2.34-9,0,0-33.87,92.25,41.04,83,3.63-.45,7.5-1.13,11.65-2.08,6.5-1.48,21.64-8.47,21.64-8.47Z"/>
          <path class="cls-2" d="M165.88,310.91c5.12-6.55,8.82-14.01,11.44-20.75,1.07-2.75-2.53-4.89-4.4-2.6-19.84,24.17-54.26,27.74-71.56,27.89-.07,0-.14.01-.21.02-2.54.21-3.29,3.71-.93,4.89,17.64,8.87,31.65,10.04,42.73,6.84,3.44-.99,6.6-2.41,9.5-4.15,5.3-3.17,9.73-7.42,13.42-12.14Z"/>
          <path class="cls-2" d="M188.67,222.86c9.46,36.38.06,61.64-6.49,74.91-1.92,3.89-3.6,6.75-4.48,8.56-1.37,2.8,1.86,5.57,4.43,3.82,27.27-18.66,29.69-39.69,24.92-56.43-.9-3.17-2.06-6.18-3.36-8.99-6.03-13.07-15.02-21.86-15.02-21.86Z"/>
          <path class="cls-2" d="M529.99,160.03c-2.24,7.85-5.81,14.94-10.64,21.17-1.75-9.43-11.04-25.85-51.77-37.25-56.78-15.89,5.69,41.36,44.96,44.67-9.75,9.07-22.97,15.75-39.36,19.85-2.55.64-4.1,3.22-3.46,5.77.54,2.16,2.48,3.6,4.61,3.6.38,0,.77-.05,1.16-.14,18.7-4.68,33.79-12.54,44.86-23.36,5.59-5.46,10.15-11.67,13.64-18.53v-22.2c-.84.14-1.7.25-2.57.33-.38,1.99-.85,4.03-1.44,6.1Z"/>
          <path class="cls-2" d="M514.8,82.42c7.24,4.3,5.66-20.48,19.2-16.1v-15.71c-1.52-.31-3.17-.52-4.97-.62-27.46-1.51-23.59,26.87-14.24,32.42Z"/>
          <path class="cls-2" d="M522.4,88.91c4.91,1.68,8.7,2.45,11.6,2.55v-18.57c-16.33,4.48-11.6,16.01-11.6,16.01Z"/>
          <path class="cls-2" d="M514.37,89.89c-1.04-.73-2.27.62-1.47,1.6,8.02,9.84,15.05,13.85,21.1,14.27v-10.22c-7.93.89-14.78-2.28-19.63-5.66Z"/>
          <path class="cls-2" d="M494.3,84.12c-4.37,38.72,23.84,38.57,39.7,32.85v-9.2c-25.51-1.68-39.7-23.66-39.7-23.66Z"/>
          <path class="cls-2" d="M490.05,55.68c-6.27,7.59-6.49,20.41-3.38,33.79.37,1.6,2.64,1.59,2.99-.01,2.64-12.08,11.91-36.4,44.34-48.9v-2.7c-8.14-.62-31.92,3.25-43.95,17.82Z"/>
          <path class="cls-2" d="M534,34.32v-.54c-.97.38-1.52.61-1.52.61.51-.03,1.01-.06,1.52-.07Z"/>
          <path class="cls-2" d="M480.94,53.33c-.56,2.55-1.04,4.74-1.44,6.6-6.82,32.22,11.61-33.9,54.37-30.71h.12s0-.64,0-.64c-8.23-3.7-43.84-17.03-53.06,24.75Z"/>
          <path class="cls-2" d="M505.67,135.96c5.52-.3,18.88-3.91,18.88-3.91,2.71-.47,4.28-4.8,1.82-6.03-14.57-7.26-45.54,2.81-51.87-55.91-.26-2.44-.48-5-.66-7.69,0,0-40.56,70.73,22,73.61,3.03.14,6.29.12,9.82-.07Z"/>
          <path class="cls-2" d="M499.88,138.45c-.06,0-.11,0-.17-.01-2.11-.18-3.2,2.57-1.44,3.87,12.8,9.43,23.82,12.44,33.16,11.63.87-.08,1.73-.19,2.57-.33v-15.1c-13.17,2.42-26.01,1.24-34.12-.06Z"/>
          <path class="cls-2" d="M286.75,393.29c-3.2,5.65-5.96,11.61-8.26,17.87-.69,1.87-1.32,3.72-1.9,5.55-3.78-9.7-15.31-30.76-39.81-12.64-27.34,20.22,25.4,18.04,38.45,17.22-6.71,24.3-4.56,43.7-4.45,44.62.28,2.42,2.34,4.2,4.72,4.2.18,0,.37-.01.56-.03,2.61-.3,4.48-2.66,4.18-5.27-.03-.24-2.61-23.99,7.32-50.73,2.9-7.81,6.57-15.1,10.98-21.85-3.91,1.37-7.91,1.6-11.78,1.06Z"/>
          <path class="cls-2" d="M319.01,357.07c.3.68.61,1.36.9,2.05,0,0-1.06.54-2.96,1.19,1.05,3.12,1.27,6.57.39,10.3,14.13-12.37,32.09-21.61,53.47-27.48,1.45-.4,2.55-1.42,3.11-2.7-3.49-1.1-7.23-2.73-10.82-4.97-16.82,5.15-31.59,12.39-44.1,21.6Z"/>
          <path class="cls-2" d="M299.77,393.02c25.53,31.92,115.75,10.21,82.13-17.45-25.33-20.84-59.11-.38-74.23,10.98-1.37,1.29-2.77,2.38-4.2,3.29-2.37,1.94-3.7,3.18-3.7,3.18Z"/>
          <path class="cls-2" d="M316.96,360.31c1.89-.66,2.96-1.19,2.96-1.19-.3-.7-.6-1.37-.9-2.05-24.81-55.28-72.6-49.06-72.6-49.06,6.23,17.23,13.49,29.23,20.98,37.5,13.61-9.4,43.86-2.09,49.56,14.81Z"/>
          <path class="cls-2" d="M316.96,360.31c-5.71-16.89-35.95-24.21-49.56-14.81-.13.09-.27.18-.39.27-17.45,12.77-5.11,32.34-5.11,32.34,3.47,5.55,13.6,13.61,24.86,15.17,3.87.54,7.87.3,11.78-1.06,1.67-.58,3.32-1.37,4.94-2.39,1.43-.9,2.83-2,4.2-3.29,2.32-2.19,4.53-4.97,6.57-8.43,1.54-2.61,2.55-5.12,3.11-7.51.88-3.73.67-7.18-.39-10.3ZM303.17,354.72c4.26,33.62-32.77,3.83-18.3,5.53,14.47,1.7,18.3-5.53,18.3-5.53ZM297.22,351.31s-15.75.85-17.02,7.66c0,0-6.38-20.43,17.02-7.66ZM276.36,351.31s-1.7,17.02,7.66,20.85c9.36,3.83-25.53,5.53-7.66-20.85ZM281.47,380.67c-21.26-11.34,3.83-.43,23.83-8.51,5.2-2.1-11.06,15.32-23.83,8.51ZM309.56,364.08c-3.83,6.38-3.83,2.55-4.26-11.06,0,0,8.09,4.68,4.26,11.06Z"/>
          <path class="cls-2" d="M297.22,351.31c-23.41-12.77-17.02,7.66-17.02,7.66,1.28-6.81,17.02-7.66,17.02-7.66Z"/>
          <path class="cls-2" d="M284.87,360.25c-14.47-1.7,22.55,28.09,18.3-5.53,0,0-3.83,7.23-18.3,5.53Z"/>
          <path class="cls-2" d="M284.02,372.16c-9.36-3.83-7.66-20.85-7.66-20.85-17.87,26.38,17.02,24.68,7.66,20.85Z"/>
          <path class="cls-2" d="M305.3,353.01c.43,13.62.43,17.45,4.26,11.06,3.83-6.38-4.26-11.06-4.26-11.06Z"/>
          <path class="cls-2" d="M305.3,372.16c-20,8.09-45.09-2.83-23.83,8.51,12.77,6.81,29.04-10.62,23.83-8.51Z"/>
          <path class="cls-2" d="M409.63,288.65c-19.85-17.02-32.65,6.13-28.69,15.64,3.97,9.51,23.69-25.2,28.62,17.98,0,0,19.92-16.59.07-33.61Z"/>
          <path class="cls-2" d="M415.83,324.67c-25.44,6.27-34.8-7.61-38.23-17.75-.38-1.14-2.05-.86-1.99.33.18,3.72-6.77,6.53-5.9,9.6,3.6,12.7,19.86,17.06,26.84,17.75,8.39.83,14.03-4.5,20.09-8.04,1.01-.59.33-2.17-.81-1.89Z"/>
          <path class="cls-2" d="M386.35,335.87c-8.14-5.98-22.54-12.27-23.9-19.12-2.23-11.28,12.48-22.25,12.48-22.25-8.16,3.63-15.47,7.08-20.6,10.51-5.56,3.72-8.55,7.41-7.2,11.24,3.1,8.77,9.27,15.03,15.96,19.21,3.59,2.24,7.32,3.87,10.82,4.97,1.01.32,1.99.59,2.95.81,10.04,2.39,16.82.02,9.48-5.37Z"/>
          <path class="cls-2" d="M359.17,296.04c8.28-7.03,27.28-18.77,56.24-11.52,1.59.4,3.22.85,4.87,1.37,11.38,3.57-18.22-19.76-42.11-14.51-8.93,1.96-16.19,11.27-21.26,22.93-.35.81.08,1.59.73,1.91.47.23,1.05.23,1.53-.18Z"/>
          <path class="cls-2" d="M400.25,307.33s-22.6,1.56-9.87,11.35c12.73,9.78,5.11-.01,9.56-8.94l.31-2.41Z"/>
          <path class="cls-2" d="M422.75,325.35c-12.77,18.35-31.17,18.94-41.49,18.18-8.59-.63-11.58-2.18-1.07,4.8,43.66,28.99,51.21-19.93,45.96-24.62-.84-.75-2-.37-3.4,1.64Z"/>
          <path class="cls-2" d="M423.77,291.62c-1.62-.68-3.37-1.36-5.27-2.02,0,0,11.06,18.72,4.26,26.81-1.6,1.9,1.07,4.21,4.63,4.89,1.92.37,4.1.26,6.01-.63,9.01-4.24,16.22-18.15-9.63-29.05Z"/>
          <path class="cls-2" d="M400.14,156.2c-12.81,17.39-15.06,32.75-13.78,44.22,3.35,5.76,7.23,11.26,11.6,16.4,31.46-42.2,2.18-60.62,2.18-60.62Z"/>
          <path class="cls-2" d="M363.1,162.38c1.21,8.35,3.34,16.55,6.31,24.46-9.26-5.21-30.96-13.71-38.54,15.38-8.5,32.63,30.42-1.33,40.49-10.52,5.81,13.65,14.17,26.31,24.72,37.2.93.96,2.18,1.45,3.42,1.45s2.39-.45,3.31-1.34c1.89-1.83,1.94-4.84.11-6.73-1.72-1.77-3.37-3.6-4.96-5.46-4.37-5.14-8.25-10.63-11.6-16.4-7.95-13.66-12.94-28.85-14.44-44.44-.06-.6-.23-1.16-.48-1.67-2.15,3.43-5.05,6.08-8.33,8.07Z"/>
          <path class="cls-2" d="M334.11,166.26c6.21,2.15,19.24,2.05,29-3.88,3.27-1.99,6.17-4.63,8.33-8.07,3.19-5.09,4.75-11.92,3.41-20.93-4.93-33.21-51.51-16.39-57.07,4.5-5.56,20.89,16.34,28.38,16.34,28.38ZM350.94,155.95c-23.66,4.53,2.71-2.74,13.2-21.59,2.73-4.91,1.01,18.87-13.2,21.59ZM362.38,125.39c1.03,7.37-1.38,4.39-10.26-5.94,0,0,9.23-1.44,10.26,5.94ZM351.53,122.12c24.43,23.49-23.09,23.56-10.76,15.8,12.33-7.76,10.76-15.8,10.76-15.8ZM344.75,123.21s-11.72,10.55-8.44,16.65c0,0-17.8-11.89,8.44-16.65ZM347.58,147.72c9.69-2.9-16.39,20.34-19.06-11.42,0,0,9.37,14.32,19.06,11.42Z"/>
          <path class="cls-2" d="M336.32,139.86c-3.28-6.1,8.44-16.65,8.44-16.65-26.23,4.77-8.44,16.65-8.44,16.65Z"/>
          <path class="cls-2" d="M340.76,137.92c-12.33,7.76,35.19,7.69,10.76-15.8,0,0,1.56,8.04-10.76,15.8Z"/>
          <path class="cls-2" d="M347.58,147.72c-9.69,2.9-19.06-11.42-19.06-11.42,2.66,31.76,28.75,8.52,19.06,11.42Z"/>
          <path class="cls-2" d="M362.38,125.39c-1.03-7.37-10.26-5.94-10.26-5.94,8.88,10.33,11.29,13.31,10.26,5.94Z"/>
          <path class="cls-2" d="M350.94,155.95c14.21-2.72,15.93-26.5,13.2-21.59-10.49,18.85-36.86,26.12-13.2,21.59Z"/>
          <path class="cls-2" d="M193.58,491.26c-12.27,16.66-14.85,31.44-13.92,42.74h22.31c12.55-29.58-8.39-42.74-8.39-42.74Z"/>
          <path class="cls-2" d="M164.87,489.37c-2.15,3.43-5.05,6.08-8.32,8.07,1.21,8.35,3.34,16.55,6.31,24.46-8.89-5-29.26-13.04-37.57,12.1h31.25c3.44-2.89,6.37-5.5,8.27-7.24,1.04,2.45,2.16,4.86,3.37,7.24h10.78c-7.46-13.28-12.15-27.93-13.6-42.96-.06-.6-.23-1.16-.48-1.67Z"/>
          <path class="cls-2" d="M164.87,489.37c3.19-5.09,4.75-11.92,3.41-20.93-4.93-33.21-51.51-16.39-57.07,4.5-5.56,20.89,16.34,28.38,16.34,28.38,6.21,2.15,19.24,2.05,29-3.88,3.27-1.99,6.17-4.63,8.32-8.07ZM155.82,460.45c1.03,7.37-1.38,4.39-10.26-5.94,0,0,9.23-1.44,10.26,5.94ZM144.97,457.18c24.43,23.49-23.09,23.56-10.77,15.8,12.33-7.76,10.77-15.8,10.77-15.8ZM138.2,458.27s-11.72,10.55-8.44,16.65c0,0-17.8-11.89,8.44-16.65ZM121.97,471.37s9.37,14.32,19.06,11.42c9.69-2.9-16.39,20.34-19.06-11.42ZM144.39,491.01c-23.66,4.53,2.71-2.74,13.2-21.59,2.73-4.91,1.01,18.87-13.2,21.59Z"/>
          <path class="cls-2" d="M129.76,474.92c-3.28-6.1,8.44-16.65,8.44-16.65-26.23,4.77-8.44,16.65-8.44,16.65Z"/>
          <path class="cls-2" d="M134.21,472.97c-12.33,7.76,35.19,7.69,10.77-15.8,0,0,1.56,8.04-10.77,15.8Z"/>
          <path class="cls-2" d="M141.03,482.78c-9.69,2.9-19.06-11.42-19.06-11.42,2.66,31.76,28.75,8.52,19.06,11.42Z"/>
          <path class="cls-2" d="M155.82,460.45c-1.03-7.37-10.26-5.94-10.26-5.94,8.88,10.33,11.29,13.31,10.26,5.94Z"/>
          <path class="cls-2" d="M157.59,469.42c-10.49,18.85-36.86,26.12-13.2,21.59,14.21-2.72,15.93-26.5,13.2-21.59Z"/>
          <path class="cls-2" d="M190.99,105.59c-.11.08-.21.15-.32.23,0,0-2-.91-4.95-2.46-8.84-2.97-23.23-4.36-44.23,3.4,0,0,28.21,31.69,53.93,4.59,3.85,3.63,7.95,7.07,12.29,10.27,4.18,3.08,8.55,5.94,13.08,8.55-7.43-.37-17.98,1.43-31.49,9.41,0,0,26.5,20.73,43.09-3.4,10.45,4.83,21.53,8.44,32.89,10.68.31.06.62.09.92.09,2.23,0,4.22-1.57,4.66-3.84.51-2.58-1.17-5.08-3.75-5.59-6.78-1.34-13.44-3.2-19.92-5.54,10.02-12.85,7.3-67.78-7.97-41.63-11.04,18.9-3.65,33.44,2.28,39.44-8.1-3.34-15.85-7.46-23.06-12.26,14.41-14.02,1.1-46.11,1.1-46.11-16.5,18.15-13.89,32.05-9.43,40.08-4.57-3.61-8.83-7.5-12.75-11.63-1.73,1.98-3.83,3.91-6.38,5.74Z"/>
          <path class="cls-2" d="M163.34,86.08c-2.63-4.22-2.81-8.58,1.93-12.46-14.41-10.86-34.63-8.2-34.63-8.2,15.41,18.95,26.08,21.99,32.7,20.67Z"/>
          <path class="cls-2" d="M170.81,69.95c-.16-.96.13-2.36,1.03-4.36,0,0,17.65-9.99,20.71-3.4,1.34,2.9,1.96,5.75,1.86,7.89,2.16-2.11,3.66-3.61,5.29-2.76,2.95,1.54,9.73,17.69-1.59,31.65,7.9-5.1,10.48-28.52,9.9-36.17-.68-8.94-7.6-3.08-18.26-5.66-10.66-2.58-20.72,5.44-22.12,9.15-.87,2.3-1.3,4.49-1.39,6.59l.1-.07c1.73-1.22,3.21-2.15,4.48-2.85Z"/>
          <path class="cls-2" d="M184.43,67.86c-.91.43-3.45,1.73-6.09,2.7.85,3.08.13,7.95,5.24,6.49,2.86-.82,5.13-2.15,7-3.57-4.31-1.6-3.6-6.84-6.15-5.63Z"/>
          <path class="cls-2" d="M163.34,86.08c4.43,7.1,15.78,13.81,22.38,17.28,2.95,1.55,4.95,2.46,4.95,2.46.11-.08.21-.15.32-.23,2.55-1.83,4.66-3.76,6.38-5.74.25-.29.5-.59.74-.88,11.31-13.97,4.53-30.12,1.59-31.65-1.62-.85-3.13.65-5.29,2.76-.13,2.72-1.41,4.3-3.83,3.41h0c-1.87,1.42-4.14,2.75-7,3.57-5.1,1.46-4.38-3.41-5.24-6.49-3.46,1.27-7.1,1.97-7.52-.61-1.27.7-2.74,1.63-4.48,2.85l-.1.07c-.34.24-.66.49-.97.74-4.74,3.89-4.56,8.24-1.93,12.46Z"/>
          <path class="cls-2" d="M192.55,62.19c-3.05-6.59-20.71,3.4-20.71,3.4-.9,2-1.19,3.4-1.03,4.36.42,2.58,4.06,1.88,7.52.61,2.64-.97,5.17-2.27,6.09-2.7,2.56-1.21,1.84,4.03,6.15,5.63h0c2.41.9,3.7-.69,3.83-3.41.1-2.14-.51-4.99-1.86-7.89Z"/>
          <path class="cls-2" d="M15.36,476.48c10.45,4.83,21.53,8.44,32.89,10.68.31.06.62.09.92.09,2.23,0,4.22-1.57,4.66-3.84.51-2.58-1.17-5.08-3.75-5.59-6.78-1.34-13.44-3.2-19.92-5.54,10.02-12.85,7.3-67.78-7.97-41.63-11.04,18.9-3.65,33.44,2.28,39.44-8.1-3.34-15.85-7.46-23.06-12.26,14.41-14.02,1.1-46.11,1.1-46.11-.9.99-1.73,1.96-2.52,2.92v53.6c1.24.77,2.5,1.52,3.76,2.25-1.18-.06-2.43-.06-3.76,0v17.14c5.37-1.18,10.75-4.43,15.36-11.14Z"/>
          <path class="cls-2" d="M383.52,528.74c4.89-4.7,9.4-9.68,13.5-14.89-.08.02-.12.03-.12.03-2.99-1.72-5.51-3.6-7.63-5.57-4.85,6.13-10.31,11.91-16.32,17.25-3.34,2.97-6.84,5.79-10.47,8.45h47.8c-11.01-4.46-19.9-5.61-26.75-5.26Z"/>
          <path class="cls-2" d="M341.61,501.61c-15.16-21.29-17.04,10.81-11.32,32.39h18.55c2.3-8.48,1.72-19.84-7.22-32.39Z"/>
          <path class="cls-2" d="M383.05,472.17c1.71-1.1,3.53.41,6.13,2.53-.33-2.36.07-5.57,1.26-8.92,2.72-7.59,23.25,1.69,23.25,1.69,1.71,3.01,1.91,4.83,1.21,5.85,1.62-1,3.38-1.14,5.56.6-.36-1.98-1.02-4.02-2.03-6.11-1.92-3.96-13.86-11.83-25.4-7.91-11.54,3.92-19.78-1.87-19.64,8.09.12,8.52,5.32,34.19,14.58,39.04-13.92-14.32-8.03-32.87-4.93-34.87Z"/>
          <path class="cls-2" d="M400,471.23c-2.95-1.08-1.64,4.64-6.24,6.85,2.21,1.39,4.86,2.63,8.11,3.25,5.59,1.06,8.65-4.42,11.94-7.2-3.44,1.29-11.85-2.18-13.8-2.89Z"/>
          <path class="cls-2" d="M397.02,513.84c2.49-.53,42.19-9.39,29.9-31.24-2.56-4.55-4.65-7.25-6.45-8.68-2.18-1.74-3.94-1.6-5.56-.6-.26.37-.63.63-1.1.81-3.3,2.78-6.35,8.26-11.94,7.2-3.25-.62-5.9-1.86-8.11-3.25h0c-2.58,1.23-4.16-.39-4.58-3.39-2.6-2.12-4.42-3.63-6.13-2.53-3.11,1.99-8.99,20.55,4.93,34.87.41.43.84.85,1.29,1.26,2.12,1.97,4.64,3.85,7.63,5.57,0,0,.04,0,.12-.03Z"/>
          <path class="cls-2" d="M413.7,467.47s-20.54-9.29-23.25-1.69c-1.2,3.35-1.59,6.56-1.26,8.92.42,3,2,4.62,4.58,3.39h0c4.61-2.21,3.29-7.93,6.24-6.85,1.96.72,10.36,4.18,13.8,2.89.47-.18.84-.44,1.1-.81.7-1.02.5-2.83-1.21-5.85Z"/>
          <path class="cls-2" d="M32.69,145.36c-2.35,1.08-4.6-1.64-3.09-3.74.97-1.35,2.74-3.46,4.86-6.37-5.3,4.04-10.31,6.74-15.16,8.47-3.45,3.14-7.38,5.85-11.8,7.71-.07.55-.16,1.1-.24,1.65,65.04-.7,80.11-50.42,80.11-50.42-9.94-.77-18.7-.7-26.43.03,1.57,14.35-3.34,31.21-28.24,42.68Z"/>
          <path class="cls-2" d="M7.24,153.08c.09-.55.17-1.1.24-1.65-2.35.99-4.85,1.74-7.49,2.18v22.2c2.11-4.15,3.83-8.54,5.15-13.16.93-3.28,1.61-6.48,2.1-9.56Z"/>
          <path class="cls-2" d="M0,29.25v4.54c1.64-.64,4.5-1.69,8.09-2.75-2.58-.7-5.29-1.32-8.09-1.79Z"/>
          <path class="cls-2" d="M16.24,78.95S21.7,54.98,0,50.61v15.71c3.94,1.27,9.15,5.01,16.24,12.63Z"/>
          <path class="cls-2" d="M4.77,71.9c-1.76.27-3.34.61-4.77,1v18.57c16.12.57,4.77-19.57,4.77-19.57Z"/>
          <path class="cls-2" d="M25.62,80.97c.48-1.17-1.1-2.08-1.88-1.09-8.33,10.62-16.49,14.85-23.75,15.67v10.22c13.12.92,21.64-14.99,25.62-24.8Z"/>
          <path class="cls-2" d="M46.02,90.05c5.89-27.81-18.64-43.1-31.12-44.39-2.07-.21-3.01,2.47-1.27,3.62,36.57,24.12-1.8,65.98-12.77,76.76-1.27,1.25-.36,3.42,1.42,3.37,13.83-.37,36.5-5.15,43.75-39.35Z"/>
          <path class="cls-2" d="M4.17,107.87c-1.42.03-2.81,0-4.17-.09v9.2c9.93-3.58,15.01-9.35,4.17-9.1Z"/>
          <path class="cls-2" d="M0,37.86v2.7c.21-.08.43-.17.64-.25,3.35-1.26,2.57-2.2-.64-2.45Z"/>
          <path class="cls-2" d="M54.02,71.98c1.48,2.9,2.19,4.73,2.19,4.73,0,0,7.75-12.94-3.2-36.98-7.69-16.87-31.44-12.69-44.92-8.69-3.59,1.06-6.45,2.11-8.09,2.75v.54c31.02-1.16,48.27,26.36,54.02,37.66Z"/>
          <path class="cls-2" d="M0,28.58v.65c.57.04,1.14.1,1.71.17,0,0-.62-.32-1.71-.82Z"/>
          <path class="cls-2" d="M19.28,143.72c5.1-4.64,9.17-10.23,12.25-15.38,1.26-2.1-1.39-4.35-3.24-2.74-8.39,7.28-18.44,11.1-28.3,12.91v15.1c2.64-.44,5.13-1.19,7.49-2.18,4.42-1.86,8.35-4.57,11.8-7.71Z"/>
          <path class="cls-2" d="M34.45,135.25c-2.11,2.92-3.88,5.02-4.86,6.37-1.51,2.1.75,4.82,3.09,3.74,24.9-11.47,29.81-28.33,28.24-42.68-.3-2.72-.83-5.34-1.5-7.83-3.11-11.53-9.24-19.97-9.24-19.97,2.67,31.07-8.54,50.43-15.74,60.36Z"/>
          <path class="cls-2" d="M191.4,17.87c4.86-6.52,8.28-12.47,10.57-17.87h-22.31c.04.5.09.99.14,1.48,3.35,5.76,7.23,11.26,11.6,16.4Z"/>
          <path class="cls-2" d="M192.94,31.41c1.19,0,2.39-.45,3.31-1.34,1.89-1.83,1.94-4.84.11-6.73-1.72-1.77-3.37-3.6-4.96-5.46-4.37-5.14-8.25-10.63-11.6-16.4-.29-.49-.57-.98-.84-1.48h-10.78c5.51,10.89,12.69,21.03,21.35,29.96.93.96,2.18,1.45,3.42,1.45Z"/>
          <path class="cls-2" d="M156.53,0h-31.25c-.34,1.04-.67,2.13-.97,3.29-6.9,26.47,17.42,9.11,32.22-3.29Z"/>
          <path class="cls-2" d="M534,487.61v-17.14c-7.08.35-16.36,2.69-27.73,9.4,0,0,13.81,10.8,27.73,7.74Z"/>
          <path class="cls-2" d="M527.09,451.77c-4.57-3.61-8.83-7.5-12.75-11.63-1.73,1.98-3.83,3.91-6.38,5.74-.11.08-.21.15-.32.23,0,0-2-.91-4.95-2.46-8.84-2.97-23.23-4.36-44.23,3.4,0,0,28.21,31.69,53.93,4.59,3.85,3.63,7.95,7.07,12.29,10.27,3.01,2.22,6.12,4.32,9.31,6.3v-53.6c-13.69,16.72-11.13,29.57-6.91,37.16Z"/>
          <path class="cls-2" d="M482.24,413.91c-14.41-10.86-34.63-8.2-34.63-8.2,15.41,18.95,26.08,21.99,32.7,20.67-2.63-4.22-2.81-8.58,1.93-12.46Z"/>
          <path class="cls-2" d="M501.4,408.15c-.91.43-3.45,1.73-6.09,2.7.85,3.08.13,7.95,5.24,6.49,2.86-.82,5.13-2.15,7-3.57-4.31-1.6-3.6-6.84-6.15-5.63Z"/>
          <path class="cls-2" d="M487.79,410.25c-.16-.96.13-2.36,1.03-4.36,0,0,17.65-9.99,20.71-3.4,1.34,2.9,1.96,5.75,1.86,7.89,2.16-2.11,3.66-3.61,5.29-2.76,2.95,1.54,9.73,17.69-1.59,31.65,7.9-5.1,10.48-28.52,9.9-36.17-.68-8.95-7.6-3.08-18.26-5.66-10.66-2.58-20.72,5.44-22.12,9.15-.87,2.3-1.3,4.49-1.39,6.59l.1-.07c1.73-1.22,3.21-2.15,4.48-2.85Z"/>
          <path class="cls-2" d="M507.96,445.88c2.55-1.83,4.66-3.76,6.38-5.74.25-.29.5-.59.74-.88,11.31-13.97,4.53-30.12,1.59-31.65-1.62-.85-3.13.65-5.29,2.76-.13,2.72-1.41,4.3-3.83,3.41h0c-1.87,1.42-4.14,2.75-7,3.57-5.1,1.46-4.38-3.41-5.24-6.49-3.46,1.27-7.1,1.97-7.52-.61-1.27.7-2.74,1.63-4.48,2.85l-.1.07c-.34.24-.66.49-.97.74-4.74,3.89-4.56,8.24-1.93,12.46,4.43,7.1,15.78,13.81,22.38,17.28,2.95,1.55,4.95,2.46,4.95,2.46.11-.08.21-.15.32-.23Z"/>
          <path class="cls-2" d="M509.52,402.48c-3.05-6.59-20.71,3.4-20.71,3.4-.9,2-1.19,3.4-1.03,4.36.42,2.58,4.06,1.88,7.52.61,2.64-.97,5.17-2.27,6.09-2.7,2.56-1.21,1.84,4.03,6.15,5.63h0c2.41.9,3.7-.69,3.83-3.41.1-2.14-.51-4.99-1.86-7.89Z"/>
          <path class="cls-2" d="M315.62,23.12c-2.52.74-3.97,3.38-3.23,5.9.61,2.08,2.51,3.42,4.57,3.42.44,0,.89-.06,1.34-.19,18.87-5.52,36.68-14.53,52.11-26.29,20.34,19.73,45.2-3.62,45.2-3.62-1.83-.87-3.6-1.64-5.33-2.34h-47.8c-6.42,4.71-13.26,8.93-20.42,12.58,2.45-2.59,5.25-6.95,6.78-12.58h-18.55c1.72,6.5,4.13,12.04,7.08,14.89-7.01,3.29-14.29,6.05-21.74,8.23Z"/>
        </g>
      </g>
    </pattern>
  </defs>
  <g id="Pattern">
    <rect class="cls-3" width="2146" height="2146"/>
  </g>
</svg>